<svg width="252" height="245" viewBox="0 0 252 245" fill="none" xmlns="http://www.w3.org/2000/svg">
<path d="M183 46.5L157.5 70L180 92.5L204.5 68L183 46.5Z" fill="white" stroke="black"/>
<path d="M228.5 1L205 23L227.5 45L250 22.5L228.5 1Z" fill="white" stroke="black"/>
<path d="M205 23C205 23.4965 205 44.7539 205 70M205 70C205 85.4356 205 103.928 205 115.5L228 92.5L205 70Z" stroke="black"/>
<path d="M228 92.5L205 115.5V70V23L228 45.5V92.5Z" fill="white"/>
<path d="M205 70C205 44.7539 205 23.4965 205 23L228 45.5M205 70C205 85.4356 205 103.928 205 115.5L228 92.5L205 70ZM228 92.5644V45.291" stroke="black"/>
<path d="M228 92.5647L228 46" stroke="black"/>
<path d="M250.5 22.5V143.5L228.5 165.5V119L205.5 142V189L157.5 237H132L180 189L180 92.5" stroke="black"/>
<path d="M229 119V165.5L206 142L229 119Z" fill="white" stroke="black"/>
<path d="M250.5 143.5V22.5L228 45V92.499L205 113V67.5L180 92.5L180 189L132 237H157.5L205.5 189V142L228.5 119V165.5L250.5 143.5Z" fill="#E2A54D"/>
<path d="M250.5 22.5V143.5L228.5 165.5V119L205.5 142V189L157.5 237H132L180 189L180 92.5L205 67.5V113L228 92.499M251 22L228 45M228 93V44" stroke="black"/>
<path d="M206 142.5L228.5 165.5" stroke="black"/>
<path d="M132 237C132 237 115.667 220.833 108 214L156.5 165.5L180 189" stroke="black"/>
<path d="M132 237C132 237 115.667 220.833 108 214L156.5 165.5L157.5 70L180 92.5002V189L132 237Z" fill="white"/>
<path d="M156.5 165.5L108 214C115.667 220.833 132 237 132 237L180 189M156.5 165.5L180 189M156.5 165.5L157.5 70L180 92.5002V189" stroke="black"/>
<path d="M72 195L24.5 242.5V243.5L49 244L132 161L144 137V55L130.5 41.5L72 100V195Z" fill="#E2A54D" stroke="black"/>
<path d="M118 149L97 170V102L118 81V149Z" fill="white" stroke="black"/>
<path d="M118 149L97 128M24.5 242.5L1.5 219.5L48.5 172.5V78L107.5 19L129.5 41L130 41.5M71.5 100.5L49 78M71.5 195L49 172.5" stroke="black"/>
<path d="M1 219.5L24 242.5L71.5 195V101V100L129.75 41.75L129 41L107 19L48 78V172.5L1 219.5Z" fill="white"/>
<path d="M48 172.5L1 219.5L24 242.5L71.5 195V100L130 41.5M48 172.5V78L107 19L129 41L130 42M48 172.5L71 195M71.5 101L48.5 78" stroke="black"/>
</svg>
